<?xml version="1.0" encoding="UTF-8"?>
<svg width="502px" height="52px" viewBox="0 0 502 52" version="1.1" xmlns="http://www.w3.org/2000/svg" xmlns:xlink="http://www.w3.org/1999/xlink">
    <title>SPOONFEDWEB</title>
    <defs>
        <radialGradient cx="50%" cy="50%" fx="50%" fy="50%" r="76.6864596%" id="radialGradient-1">
            <stop stop-color="#330DEE" stop-opacity="0.151293775" offset="0%"></stop>
            <stop stop-color="#2E2E2E" stop-opacity="0.704120343" offset="100%"></stop>
        </radialGradient>
    </defs>
    <g id="Page-1" stroke="none" stroke-width="1" fill="none" fill-rule="evenodd">
        <g id="play/ic_launcher_APP" transform="translate(-5.000000, -153.000000)">
            <circle id="Oval" stroke="url(#radialGradient-1)" stroke-width="8" fill="#2E2E2E" cx="255.5" cy="192.5" r="283.5"></circle>
            <path d="M21.8105066,205 C24.8924328,205 27.5278299,203.857986 29.7166979,201.573958 C31.905566,199.289931 33,196.586111 33,193.4625 L33,193.4625 L33,190.5375 C33,187.630556 31.905566,184.913194 29.7166979,182.385417 L29.7166979,182.385417 L17.8442777,168.627083 C16.7410882,167.363194 16.1894934,166.009028 16.1894934,164.564583 C16.1894934,162.632639 16.6885553,161.179167 17.6866792,160.204167 C18.684803,159.229167 20.1644778,158.741667 22.1257036,158.741667 C25.1726079,158.741667 26.9412133,160.673611 27.4315197,164.5375 L27.4315197,164.5375 L33,164.5375 C32.5447154,156.845833 28.8148843,153 21.8105066,153 L21.8105066,153 L16.1894934,153 C13.1075672,153 10.4721701,154.1375 8.28330206,156.4125 C6.09443402,158.6875 5,161.395833 5,164.5375 L5,164.5375 L5,167.4625 C5,170.3875 6.09443402,173.104861 8.28330206,175.614583 L8.28330206,175.614583 L20.1557223,189.31875 C21.2589118,190.564583 21.8105066,191.91875 21.8105066,193.38125 C21.8105066,195.277083 21.372733,196.721528 20.4971857,197.714583 C19.6216385,198.707639 18.1857411,199.204167 16.1894934,199.204167 C14.7886179,199.204167 13.5015635,198.797917 12.3283302,197.985417 C11.1550969,197.172917 10.5684803,195.98125 10.5684803,194.410417 C10.5684803,194.175694 10.5859912,193.859722 10.6210131,193.4625 L10.6210131,193.4625 L5,193.4625 C5,197.290278 5.93683552,200.170139 7.81050657,202.102083 C9.68417761,204.034028 12.4771732,205 16.1894934,205 L16.1894934,205 L21.8105066,205 Z M56.315625,205 L56.315625,181.870833 L67.684375,181.870833 C70.7833333,181.870833 73.4440104,180.737847 75.6664062,178.471875 C77.8888021,176.205903 79,173.493056 79,170.333333 L79,170.333333 L79,164.5375 C79,161.395833 77.8888021,158.6875 75.6664062,156.4125 C73.4440104,154.1375 70.7833333,153 67.684375,153 L67.684375,153 L45,153 L45,205 L56.315625,205 Z M63,177 L57,177 L57,159 L63,159 C64.6261682,159 66.0327103,159.585938 67.2196262,160.757813 C68.4065421,161.929688 69,163.33125 69,164.9625 L69,164.9625 L69,170.98125 C69,172.6125 68.4065421,174.023438 67.2196262,175.214063 C66.0327103,176.404688 64.6261682,177 63,177 L63,177 Z M113.684375,205 C116.783333,205 119.44401,203.857986 121.666406,201.573958 C123.888802,199.289931 125,196.586111 125,193.4625 L125,193.4625 L125,164.5375 C125,161.395833 123.888802,158.6875 121.666406,156.4125 C119.44401,154.1375 116.783333,153 113.684375,153 L113.684375,153 L102.315625,153 C99.2166667,153 96.5559896,154.132986 94.3335938,156.398958 C92.1111979,158.664931 91,161.377778 91,164.5375 L91,164.5375 L91,193.4625 C91,196.622222 92.1111979,199.335069 94.3335938,201.601042 C96.5559896,203.867014 99.2166667,205 102.315625,205 L102.315625,205 L113.684375,205 Z M109,199 C107.336449,199 105.920561,198.436997 104.752336,197.310992 C103.584112,196.184987 103,194.853441 103,193.316354 L103,193.316354 L103,164.683646 C103,163.128686 103.588785,161.792672 104.766355,160.675603 C105.943925,159.558534 107.35514,159 109,159 C110.626168,159 112.03271,159.558534 113.219626,160.675603 C114.406542,161.792672 115,163.128686 115,164.683646 L115,164.683646 L115,193.316354 C115,194.853441 114.415888,196.184987 113.247664,197.310992 C112.079439,198.436997 110.663551,199 109,199 Z M161.684375,205 C164.783333,205 167.44401,203.857986 169.666406,201.573958 C171.888802,199.289931 173,196.586111 173,193.4625 L173,193.4625 L173,164.5375 C173,161.395833 171.888802,158.6875 169.666406,156.4125 C167.44401,154.1375 164.783333,153 161.684375,153 L161.684375,153 L150.315625,153 C147.216667,153 144.55599,154.132986 142.333594,156.398958 C140.111198,158.664931 139,161.377778 139,164.5375 L139,164.5375 L139,193.4625 C139,196.622222 140.111198,199.335069 142.333594,201.601042 C144.55599,203.867014 147.216667,205 150.315625,205 L150.315625,205 L161.684375,205 Z M155,199 C153.336449,199 151.920561,198.436997 150.752336,197.310992 C149.584112,196.184987 149,194.853441 149,193.316354 L149,193.316354 L149,164.683646 C149,163.128686 149.588785,161.792672 150.766355,160.675603 C151.943925,159.558534 153.35514,159 155,159 C156.626168,159 158.03271,159.558534 159.219626,160.675603 C160.406542,161.792672 161,163.128686 161,164.683646 L161,164.683646 L161,193.316354 C161,194.853441 160.415888,196.184987 159.247664,197.310992 C158.079439,198.436997 156.663551,199 155,199 Z M190.729585,205 L190.729585,176.129167 L222.376171,205 L225,205 L225,153 L219.270415,153 L219.270415,181.870833 L187.597055,153 L185,153 L185,205 L190.729585,205 Z M248.189493,205 L248.189493,181.870833 L259.43152,181.870833 L259.43152,176.129167 L248.189493,176.129167 L248.189493,158.795833 L265,158.795833 L265,153 L237,153 L237,205 L248.189493,205 Z M305,205 L305,199.204167 L288.189493,199.204167 L288.189493,181.870833 L299.43152,181.870833 L299.43152,176.129167 L288.189493,176.129167 L288.189493,158.795833 L305,158.795833 L305,153 L277,153 L277,205 L305,205 Z M339.684375,205 C342.783333,205 345.44401,203.857986 347.666406,201.573958 C349.888802,199.289931 351,196.586111 351,193.4625 L351,193.4625 L351,164.5375 C351,161.395833 349.888802,158.6875 347.666406,156.4125 C345.44401,154.1375 342.783333,153 339.684375,153 L339.684375,153 L317,153 L317,205 L339.684375,205 Z M333,199 L327,199 L327,159 L333,159 C334.626168,159 336.03271,159.558534 337.219626,160.675603 C338.406542,161.792672 339,163.128686 339,164.683646 L339,164.683646 L339,193.316354 C339,194.853441 338.415888,196.184987 337.247664,197.310992 C336.079439,198.436997 334.663551,199 333,199 L333,199 Z M377.975633,205 C381.237113,205 383.982193,204.386111 386.210872,203.158333 L386.210872,203.158333 L386.210872,205 L401.186504,205 C406.622306,205 411.283505,203.054514 415.170103,199.163542 C419.056701,195.272569 421,190.636806 421,185.25625 L421,185.25625 L421,153 L409.367385,153 L409.367385,193.4625 C409.367385,195.015278 408.801156,196.360417 407.668697,197.497917 C406.536239,198.635417 405.181818,199.204167 403.605436,199.204167 L403.605436,199.204167 L397.789128,199.204167 L397.789128,153 L386.210872,153 L386.210872,193.4625 C386.210872,195.015278 385.644642,196.360417 384.512184,197.497917 C383.379725,198.635417 382.007185,199.204167 380.394564,199.204167 L380.394564,199.204167 L374.578257,199.204167 L374.578257,153 L363,153 L363,205 L377.975633,205 Z M461,205 L461,199.204167 L444.189493,199.204167 L444.189493,181.870833 L455.43152,181.870833 L455.43152,176.129167 L444.189493,176.129167 L444.189493,158.795833 L461,158.795833 L461,153 L433,153 L433,205 L461,205 Z M495.684375,205 C498.747917,205 501.39974,203.857986 503.639844,201.573958 C505.879948,199.289931 507,196.586111 507,193.4625 L507,193.4625 L507,190.5375 C507,187.486111 506.057031,184.800347 504.171094,182.480208 C502.285156,180.160069 499.45625,179 495.684375,179 C499.45625,178.548611 502.285156,177.356944 504.171094,175.425 C506.057031,173.493056 507,170.838889 507,167.4625 L507,167.4625 L507,164.5375 C507,161.395833 505.888802,158.6875 503.666406,156.4125 C501.44401,154.1375 498.783333,153 495.684375,153 L495.684375,153 L473,153 L473,205 L495.684375,205 Z M489,177 L483,177 L483,159 L489,159 C490.626168,159 492.03271,159.585937 493.219626,160.757812 C494.406542,161.929687 495,163.33125 495,164.9625 L495,164.9625 L495,170.98125 C495,172.6125 494.406542,174.023437 493.219626,175.214062 C492.03271,176.404687 490.626168,177 489,177 L489,177 Z M489,199 L483,199 L483,181 L489,181 C493,181 495,183.00625 495,187.01875 L495,187.01875 L495,193.0375 C495,194.65 494.406542,196.046875 493.219626,197.228125 C492.03271,198.409375 490.626168,199 489,199 L489,199 Z" id="SPOONFEDWEB" fill="#83D8DA" fill-rule="nonzero" transform="translate(256.000000, 179.000000) rotate(-360.000000) translate(-256.000000, -179.000000) "></path>
        </g>
    </g>
</svg>
